<svg width="150" height="150" viewBox="0 0 150 150" fill="none" xmlns="http://www.w3.org/2000/svg">
<rect width="150" height="150" rx="75" fill="#F7F7F7"/>
<path d="M113.587 59.015L113.469 59.0576C111.007 59.6627 109.141 58.6113 107.871 55.9036C107.541 57.3751 107.023 58.6044 106.317 59.5916C105.612 60.5787 104.809 61.2357 103.908 61.5625C102.322 62.1379 100.901 62.0995 99.6451 61.4472C97.8022 60.5205 96.3976 58.7256 95.4315 56.0626C95.1544 55.2989 94.8962 54.2514 94.657 52.9201C94.4106 51.5692 94.4153 49.9943 94.6711 48.1953C94.927 46.3963 95.5172 44.7862 96.4419 43.365C97.3594 41.9242 98.6504 40.9019 100.315 40.298C102.88 39.3674 104.775 40.0095 105.999 42.2242L106.107 40.6894C106.218 39.6519 106.744 38.8408 107.684 38.256C108.138 37.9805 108.619 37.7504 109.128 37.5657C109.677 37.3668 110.407 37.2125 111.32 37.1029C112.226 36.9736 113.13 37.0223 114.032 37.249C113.736 38.2649 113.498 39.7472 113.319 41.6957C113.14 43.6442 113.045 45.6729 113.034 47.7817C113.024 49.8906 113.127 51.6702 113.343 53.1208C113.437 53.685 113.544 54.1335 113.665 54.4664C113.892 55.093 114.182 55.3423 114.534 55.2145C115.67 54.8024 116.593 52.6729 117.302 48.826C117.638 47.0644 117.832 45.9194 117.884 45.3909C117.925 45.1987 117.975 45.092 118.033 45.0706C118.131 45.0351 118.219 45.1251 118.297 45.3405C118.743 46.9958 118.794 48.8164 118.451 50.8022C118.127 52.7808 117.525 54.5395 116.643 56.0782C115.76 57.6169 114.742 58.5959 113.587 59.015ZM104.695 58.7842C105.339 58.4839 105.796 57.5429 106.064 55.961C106.344 54.3524 106.439 52.5676 106.348 50.6064C106.234 48.5206 105.932 46.8022 105.442 45.4511C105.03 44.3154 104.464 43.8558 103.745 44.0724C103.134 44.4048 102.679 45.1349 102.379 46.263C102.092 47.3644 101.932 48.6633 101.898 50.16C101.885 51.6495 101.985 53.0866 102.2 54.4713C102.364 55.4751 102.578 56.3392 102.841 57.0637C102.94 57.3379 103.123 57.7482 103.387 58.2947C103.652 58.8413 104.088 59.0044 104.695 58.7842Z" fill="#1F1F1F"/>
<path d="M91.2655 67.1133L91.148 67.1559C89.2292 67.6083 87.7197 66.9594 86.6194 65.2093C86.0773 64.3867 85.6108 63.4369 85.2201 62.36C84.7867 61.1656 84.3769 59.4862 83.9905 57.3219C83.6167 55.131 83.3614 52.5646 83.2248 49.6228L81.3744 50.2941L81.4511 47.5741L83.1253 46.9667C83.1061 43.9823 83.1247 41.804 83.1808 40.432C83.2919 39.3946 83.8175 38.5835 84.7576 37.9987C85.192 37.7303 85.6442 37.5108 86.1141 37.3403C86.7016 37.1272 87.4616 36.9623 88.3942 36.8455C89.3268 36.7287 90.2308 36.7775 91.1062 36.9917C90.8313 38.0663 90.6088 40.5069 90.4388 44.3133L92.8178 43.4502L92.7411 46.1703L90.362 47.0334C90.2364 53.2833 90.4207 57.9139 90.915 60.9254C91.0177 61.575 91.1401 62.0956 91.2822 62.4873C91.5309 63.1726 91.8412 63.4478 92.2132 63.3128C92.8594 63.0784 93.4357 62.3153 93.942 61.0237C94.468 59.725 94.889 58.3203 95.2051 56.8097C95.5337 55.2723 95.7454 54.1762 95.8402 53.5214C95.8724 53.2438 95.9277 53.0908 96.006 53.0624C96.1235 53.0198 96.2213 53.1062 96.2994 53.3216C96.7449 54.9769 96.7667 56.8081 96.3648 58.8152C95.9825 60.8152 95.3209 62.5952 94.3802 64.1553C93.459 65.7082 92.4207 66.6942 91.2655 67.1133Z" fill="#1F1F1F"/>
<path d="M68.8512 75.4127C68.4791 75.5477 67.9701 75.6105 67.3241 75.6011C66.6977 75.5846 66.1426 75.3983 65.6588 75.042C64.1827 73.7827 63.0823 72.1545 62.3577 70.1572C62.308 70.0201 62.1003 69.3864 61.7345 68.2561C61.342 67.1133 61.0639 65.4305 60.9 63.2077C60.7291 60.9652 60.686 59.0753 60.7707 57.5378C60.8747 56.4808 61.4003 55.6696 62.3475 55.1044C62.7694 54.8627 63.2154 54.6566 63.6853 54.4861C64.2923 54.2659 65.0719 54.0938 66.0241 53.97C66.9763 53.8461 67.9034 53.8975 68.8055 54.1242C68.4078 55.2878 68.0655 57.3065 67.7786 60.1803C67.5114 63.047 67.6844 66.1197 68.2977 69.3981L68.3325 69.2193C68.7728 65.9131 69.3659 62.7841 70.112 59.8323C71.4346 54.4998 73.0805 51.1883 75.0497 49.8978L75.5383 49.6873C76.537 49.325 77.5629 49.3738 78.616 49.8337C79.4095 50.1884 79.9341 50.7182 80.1898 51.4231C80.3319 51.8148 80.3894 52.2481 80.3624 52.7233C80.1438 54.686 80.015 56.8045 79.976 59.0788C79.9494 61.3265 80.0396 63.2547 80.2466 64.8636C80.3298 65.5204 80.4424 66.0445 80.5845 66.4362C80.8189 67.0823 81.1222 67.3379 81.4942 67.203C82.6299 66.7909 83.5524 64.6614 84.2617 60.8144C84.5976 59.0529 84.7915 57.9079 84.8435 57.3794C84.8846 57.1872 84.9345 57.0804 84.9933 57.0591C85.0912 57.0236 85.1792 57.1135 85.2573 57.3289C85.7028 58.9843 85.7539 60.8049 85.4108 62.7907C85.0872 64.7693 84.4844 66.528 83.6024 68.0667C82.7203 69.6054 81.7017 70.5844 80.5464 71.0035L80.4289 71.0461C78.7398 71.4595 77.3671 71.1266 76.3108 70.0474C75.5248 69.2246 74.8867 68.1377 74.3966 66.7866C74.2474 66.3754 74.0086 65.5646 73.6803 64.3543C73.3715 63.1368 73.1548 61.4095 73.0301 59.1725C72.1201 62.4053 71.2538 66.7968 70.4311 72.3467C70.2754 73.4446 70.1538 74.2089 70.0663 74.6395C69.687 74.9987 69.282 75.2564 68.8512 75.4127Z" fill="#1F1F1F"/>
<path d="M57.7213 79.2826L57.6038 79.3252C55.1422 79.9302 53.2762 78.8789 52.0058 76.1712C51.6755 77.6427 51.1576 78.872 50.4521 79.8591C49.7467 80.8463 48.9436 81.5033 48.0429 81.8301C46.4568 82.4055 45.0358 82.3671 43.7799 81.7148C41.9369 80.788 40.5324 78.9932 39.5662 76.3302C39.2892 75.5665 39.031 74.519 38.7917 73.1877C38.5454 71.8368 38.5501 70.2619 38.8059 68.4629C39.0617 66.6639 39.652 65.0538 40.5766 63.6326C41.4942 62.1918 42.7852 61.1694 44.4495 60.5656C47.0146 59.635 48.9094 60.277 50.1339 62.4918L50.2418 60.9569C50.3529 59.9195 50.8785 59.1084 51.8186 58.5236C52.2726 58.2481 52.7541 58.018 53.2632 57.8333C53.8115 57.6344 54.5421 57.4801 55.4552 57.3704C56.3611 57.2412 57.2651 57.2899 58.1672 57.5166C57.871 58.5325 57.6332 60.0148 57.4538 61.9633C57.2744 63.9118 57.1795 65.9405 57.169 68.0493C57.1586 70.1581 57.2614 71.9378 57.4774 73.3884C57.5713 73.9526 57.6787 74.4011 57.7994 74.734C58.0268 75.3606 58.3166 75.6099 58.6691 75.482C59.8048 75.07 60.7273 72.9405 61.4367 69.0935C61.7725 67.332 61.9665 66.1869 62.0184 65.6584C62.0595 65.4663 62.1094 65.3595 62.1682 65.3382C62.2661 65.3027 62.3541 65.3926 62.4322 65.608C62.8777 67.2634 62.9289 69.084 62.5857 71.0697C62.2621 73.0484 61.6593 74.8071 60.7773 76.3458C59.8953 77.8845 58.8766 78.8634 57.7213 79.2826ZM48.8297 79.0518C49.4742 78.7515 49.9304 77.8104 50.1985 76.2286C50.4791 74.62 50.5739 72.8351 50.4828 70.874C50.3686 68.7882 50.0665 67.0697 49.5763 65.7187C49.1643 64.583 48.5987 64.1234 47.8796 64.34C47.2689 64.6723 46.8137 65.4025 46.5139 66.5306C46.2266 67.6319 46.0663 68.9309 46.0332 70.4275C46.0197 71.9171 46.12 73.3542 46.3343 74.7389C46.4991 75.7427 46.7129 76.6068 46.9758 77.3313C47.0752 77.6055 47.2573 78.0158 47.5221 78.5623C47.7868 79.1089 48.2227 79.272 48.8297 79.0518Z" fill="#1F1F1F"/>
<path d="M26.6778 94.6674L26.5603 94.71C25.2858 95.1059 24.1095 95.1006 23.0313 94.6941C21.9728 94.2804 21.0772 93.6747 20.3446 92.8769C19.4839 91.9704 18.9186 91.1452 18.6487 90.4011C18.4427 89.8333 18.4296 89.4613 18.6095 89.2853C19.7923 90.1635 21.3823 90.2403 23.3795 89.5157C24.6719 89.0468 26.0356 88.2862 27.4707 87.2337C28.9183 86.1545 30.1695 84.8697 31.2241 83.3792C32.2716 81.8691 32.7808 80.4324 32.7515 79.0692C32.7338 78.8984 32.7037 78.7542 32.6611 78.6367C32.5261 78.2647 32.2432 78.1568 31.8124 78.3131C31.2642 78.512 30.2778 79.2133 28.8532 80.4171C27.5123 81.5461 26.038 82.6128 24.4303 83.6171C23.7947 84.0028 23.1636 84.3093 22.537 84.5366C21.558 84.8918 20.4251 85.0369 19.1385 84.9719C17.8519 84.9069 16.5839 83.7937 15.3344 81.6323C15.1887 81.3528 15.0626 81.0662 14.956 80.7725C14.3166 79.0102 14.2658 76.824 14.8034 74.2137C15.3409 71.6034 16.4036 68.9134 17.9912 66.1438C19.5985 63.367 21.4527 61.0878 23.554 59.3062C24.7204 58.3069 25.8714 57.6012 27.0071 57.1892C27.947 56.8482 29.1625 56.7174 30.6538 56.7968C32.1646 56.8691 33.6699 58.3616 35.1698 61.2741L35.5508 62.2327C36.1333 63.8383 36.406 65.6893 36.3689 67.7857C36.3317 69.882 35.8215 71.5295 34.8383 72.7283C34.1901 73.3845 33.4156 73.8759 32.5149 74.2027C30.3022 75.0055 28.3919 74.9008 26.7839 73.8888C28.1156 73.162 29.1897 71.7862 30.0062 69.7617C30.8424 67.73 31.3572 65.7594 31.5508 63.8501C31.6888 62.5813 31.6477 61.6434 31.4274 61.0364C31.3209 60.7427 31.1671 60.5326 30.9661 60.4061C30.7473 60.3526 30.5203 60.3684 30.2854 60.4537C29.5609 60.7165 28.6231 61.7658 27.4722 63.6015C26.3337 65.4105 25.2197 67.7756 24.1302 70.6969C23.0532 73.5916 22.4159 76.1715 22.2185 78.4368C22.2055 79.1949 22.2736 79.7796 22.4228 80.1908C22.6288 80.7586 22.9872 80.9831 23.498 80.8642L24.008 80.7125C24.8108 80.4212 25.7811 79.8587 26.9189 79.0249C28.2116 78.0684 29.5486 77.2953 30.93 76.7055L31.2238 76.5989C32.4769 76.1442 33.6007 76.2794 34.5949 77.0045C35.4859 77.8113 36.109 78.7042 36.4642 79.6833C36.8407 80.721 36.885 82.1563 36.5972 83.9891C36.3022 85.8023 35.2312 87.7973 33.3841 89.9742C31.5371 92.1511 29.3016 93.7155 26.6778 94.6674Z" fill="#1F1F1F"/>
<path d="M126.784 97.5243C126.451 97.6451 125.904 97.7879 125.144 97.9529C124.411 98.1303 123.521 98.1207 122.475 97.9242C121.429 97.7277 120.575 97.0846 119.914 95.995C120.976 96.2965 121.879 96.3123 122.623 96.0424C123.465 95.7369 124.216 94.8441 124.875 93.364C125.535 91.8838 125.861 89.5163 125.855 86.2614C125.185 87.5903 124.301 88.4536 123.205 88.8514C121.638 89.4198 120.227 89.3778 118.971 88.7255C117.121 87.7792 115.727 86.0137 114.79 83.429C114.498 82.6262 114.23 81.5493 113.983 80.1984C113.737 78.8475 113.742 77.2726 113.997 75.4736C114.253 73.6746 114.843 72.0645 115.768 70.6433C116.686 69.2025 117.986 68.1766 119.67 67.5657C121.354 66.9547 122.855 67.2744 124.173 68.5247C124.248 67.6331 124.706 66.8798 125.547 66.2647C126.051 65.8824 126.606 65.5812 127.213 65.361C127.605 65.2189 128.174 65.0787 128.922 64.9405C129.689 64.7951 130.502 64.8989 131.361 65.2519C131.371 66.866 131.481 68.9091 131.69 71.3811C131.952 74.5437 132.116 77.9295 132.185 81.5386C132.266 85.121 131.959 88.3676 131.265 91.2785C130.59 94.1824 129.259 96.1941 127.272 97.3138C127.162 97.376 126.999 97.4462 126.784 97.5243ZM124.05 86.0519C124.618 85.8459 124.996 84.8113 125.185 82.9482C125.385 81.0584 125.412 79.0546 125.264 76.9368L124.951 74.4246C124.814 73.7429 124.654 73.1475 124.469 72.6384C124.384 72.4035 124.237 72.091 124.029 71.7011C123.841 71.3042 123.531 71.1838 123.1 71.3401C122.347 71.7684 121.821 72.7904 121.52 74.4061C121.24 76.0146 121.164 77.7595 121.292 79.6406C121.414 81.5022 121.702 83.0595 122.157 84.3127L122.21 84.4595C122.679 85.7519 123.292 86.2827 124.05 86.0519Z" fill="#1F1F1F"/>
<path d="M105.681 95.707C104.115 96.2753 102.703 96.2333 101.447 95.5811C99.617 94.6276 98.2151 92.8096 97.2419 90.127C96.9506 89.3242 96.6684 88.2411 96.3954 86.8777C96.1419 85.5073 96.136 83.9029 96.3776 82.0648C96.6192 80.2266 97.1988 78.5872 98.1163 77.1464C99.0339 75.7056 100.324 74.6503 101.987 73.9806C104.187 73.2046 106.07 73.2967 107.638 74.2571C109.313 75.3332 110.559 76.9972 111.376 79.249C112.051 81.1091 112.359 83.147 112.298 85.3626C112.238 87.5781 111.673 89.6554 110.604 91.5944C109.528 93.5138 107.887 94.8846 105.681 95.707ZM106.449 92.603C107.252 92.3118 107.869 91.5675 108.298 90.3701C108.721 89.1532 108.971 87.7661 109.049 86.2091C109.156 83.7551 108.904 81.6861 108.293 80.0021C107.625 78.1615 106.723 77.4472 105.587 77.8593C104.922 78.1008 104.424 78.8354 104.094 80.0631C103.794 81.1911 103.627 82.5035 103.594 84.0001C103.574 85.47 103.684 86.9036 103.925 88.3008C104.089 89.3046 104.3 90.1589 104.555 90.8638C104.655 91.138 104.841 91.5581 105.112 92.1242C105.397 92.6636 105.842 92.8232 106.449 92.603Z" fill="#1F1F1F"/>
<path d="M81.3313 105.174C80.9984 105.295 80.5579 105.333 80.0098 105.288C79.4617 105.243 78.9752 105.032 78.5501 104.654C77.4919 103.753 76.7177 102.627 76.2276 101.276C75.645 99.6701 75.2177 97.576 74.9456 94.9936C74.9102 94.6519 74.8615 94.304 74.7995 93.9498C74.0515 97.0796 73.4588 100.851 73.0213 105.264C72.8976 106.572 72.783 107.478 72.6777 107.981C72.2983 108.34 71.8835 108.602 71.4331 108.765C71.0807 108.893 70.5815 108.952 69.9355 108.943C69.2895 108.934 68.7344 108.747 68.2702 108.384C66.794 107.125 65.6937 105.496 64.9691 103.499C64.9193 103.362 64.7116 102.728 64.3458 101.598C63.9534 100.455 63.6752 98.7723 63.5114 96.5495C63.3404 94.307 63.2973 92.4171 63.3821 90.8796C63.4861 89.8225 64.0116 89.0114 64.9588 88.4462C65.3808 88.2045 65.8267 87.9984 66.2966 87.8279C66.9036 87.6077 67.6832 87.4356 68.6354 87.3118C69.5876 87.1879 70.5147 87.2393 71.4168 87.466C71.0191 88.6295 70.6768 90.6483 70.39 93.5221C70.1227 96.3888 70.2957 99.4615 70.909 102.74L70.9764 101.918C71.0702 100.222 71.2549 98.2271 71.5307 95.9334C71.7993 93.6201 72.2752 91.42 72.9584 89.333C73.654 87.2194 74.6562 85.6149 75.965 84.5196C76.3585 84.1996 76.7903 83.9543 77.2602 83.7838C78.3763 83.3789 79.6985 83.4199 81.2268 83.9069C80.8095 85.0776 80.4673 87.0963 80.2 89.963C79.9327 92.8298 80.1155 95.8988 80.7484 99.1702L80.7833 98.9914C80.8477 98.4362 81.0283 97.2849 81.325 95.5376C81.6342 93.7635 82.0663 91.7787 82.6214 89.5831C83.1694 87.3679 83.8543 85.3468 84.676 83.5197C85.5102 81.666 86.4908 80.3685 87.6179 79.6272L88.0772 79.4274C89.0758 79.0651 90.1017 79.1139 91.1549 79.5738C91.9554 79.9481 92.4836 80.4877 92.7393 81.1926C92.8743 81.5646 92.938 81.9847 92.9306 82.4527C92.712 84.4154 92.5832 86.534 92.5442 88.8083C92.5176 91.0559 92.6078 92.9842 92.8148 94.5931C92.898 95.2498 93.0106 95.774 93.1527 96.1656C93.3871 96.8118 93.6904 97.0674 94.0624 96.9324C94.6498 96.7193 95.1726 96.0532 95.6308 94.9342C96.2477 93.3365 96.8136 90.9265 97.3286 87.704C97.3663 87.1363 97.444 86.8312 97.5615 86.7886C97.6594 86.753 97.7474 86.843 97.8255 87.0584C98.271 88.7137 98.3221 90.5343 97.979 92.5201C97.6554 94.4988 97.0526 96.2575 96.1706 97.7962C95.2885 99.3349 94.2699 100.314 93.1146 100.733L92.9971 100.776C91.308 101.189 89.9353 100.856 88.879 99.7768C88.093 98.9541 87.4549 97.8671 86.9648 96.5161C86.8156 96.1049 86.5768 95.2941 86.2485 94.0837C85.9397 92.8662 85.723 91.139 85.5983 88.9019C84.5724 92.4871 83.6651 96.9487 82.8763 102.287C82.7118 103.299 82.5823 104.011 82.4877 104.422C82.1083 104.781 81.7229 105.032 81.3313 105.174Z" fill="#1F1F1F"/>
<path d="M51.5528 119.932L51.4353 119.975C50.1608 120.371 48.9845 120.365 47.9063 119.959C46.8478 119.545 45.9522 118.939 45.2196 118.142C44.3589 117.235 43.7936 116.41 43.5237 115.666C43.3177 115.098 43.3046 114.726 43.4845 114.55C44.6673 115.428 46.2573 115.505 48.2545 114.78C49.5469 114.311 50.9106 113.551 52.3457 112.498C53.7933 111.419 55.0445 110.134 56.0991 108.644C57.1466 107.134 57.6558 105.697 57.6265 104.334C57.6088 104.163 57.5787 104.019 57.5361 103.901C57.4011 103.529 57.1182 103.421 56.6874 103.578C56.1392 103.777 55.1528 104.478 53.7282 105.682C52.3873 106.811 50.913 107.877 49.3053 108.882C48.6697 109.267 48.0386 109.574 47.412 109.801C46.433 110.156 45.3001 110.302 44.0135 110.237C42.7269 110.172 41.4589 109.058 40.2094 106.897C40.0637 106.617 39.9376 106.331 39.831 106.037C39.1916 104.275 39.1408 102.089 39.6784 99.4783C40.2159 96.868 41.2786 94.1781 42.8662 91.4084C44.4735 88.6316 46.3277 86.3524 48.429 84.5708C49.5954 83.5716 50.7464 82.8659 51.8821 82.4539C52.822 82.1129 54.0375 81.9821 55.5288 82.0615C57.0396 82.1338 58.5449 83.6262 60.0448 86.5387L60.4258 87.4973C61.0083 89.103 61.281 90.954 61.2439 93.0503C61.2067 95.1466 60.6965 96.7942 59.7133 97.9929C59.0651 98.6491 58.2906 99.1406 57.3899 99.4674C55.1772 100.27 53.2669 100.165 51.6589 99.1535C52.9906 98.4266 54.0647 97.0509 54.8812 95.0263C55.7174 92.9946 56.2322 91.0241 56.4258 89.1147C56.5638 87.846 56.5227 86.9081 56.3024 86.3011C56.1959 86.0074 56.0421 85.7973 55.8411 85.6708C55.6223 85.6172 55.3953 85.6331 55.1604 85.7183C54.4359 85.9811 53.4981 87.0304 52.3472 88.8661C51.2087 90.6751 50.0947 93.0403 49.0052 95.9616C47.9282 98.8562 47.2909 101.436 47.0935 103.701C47.0805 104.46 47.1486 105.044 47.2978 105.455C47.5038 106.023 47.8622 106.248 48.373 106.129L48.883 105.977C49.6858 105.686 50.6561 105.123 51.7939 104.29C53.0866 103.333 54.4236 102.56 55.805 101.97L56.0988 101.864C57.3519 101.409 58.4757 101.544 59.4699 102.269C60.3609 103.076 60.984 103.969 61.3392 104.948C61.7157 105.986 61.76 107.421 61.4722 109.254C61.1772 111.067 60.1062 113.062 58.2591 115.239C56.4121 117.416 54.1766 118.98 51.5528 119.932Z" fill="#1F1F1F"/>
</svg>
